<svg xmlns="http://www.w3.org/2000/svg" viewBox="0 0 275.01 275.01"><defs><style>.cls-1{fill:#bb93ff;}.cls-2{fill:#78e0df;}.cls-3{fill:#275e5d;}.cls-4{fill:#ffb050;}.cls-5{fill:#37215e;}.cls-6{fill:#ff4230;}</style></defs><g id="Layer_2" data-name="Layer 2"><g id="Layer_1-2" data-name="Layer 1"><path class="cls-1" d="M243.5,65.09v19a44.37,44.37,0,0,1-44.37,44.38H167.19v82.42h58.5A49.32,49.32,0,0,0,275,161.57V65.09Z"/><path class="cls-2" d="M167.19,114.41V102.82a37.73,37.73,0,0,1,37.73-37.73H243.5V0h-164A44.66,44.66,0,0,0,34.88,44.67V65.09h83A49.32,49.32,0,0,1,167.19,114.41Z"/><path class="cls-3" d="M167.19,102.82v25.65h31.94A44.37,44.37,0,0,0,243.5,84.09v-19H204.92A37.73,37.73,0,0,0,167.19,102.82Z"/><path class="cls-4" d="M34.88,128.47V65.09H0V173.16c0,.26,0,.52,0,.78,0,.52,0,1,0,1.56V275H107.82V128.47Z"/><path class="cls-5" d="M167.19,128.47H107.82V275h15a44.37,44.37,0,0,0,44.37-44.37V128.47Z"/><path class="cls-6" d="M107.82,128.47h59.37V114.41a49.32,49.32,0,0,0-49.32-49.32h-83v63.38Z"/></g></g></svg>