<svg xmlns="http://www.w3.org/2000/svg" viewBox="0 0 674.77 211.33"><defs><style>.cls-1{fill:#bb93ff;}.cls-2{fill:#78e0df;}.cls-3{fill:#275e5d;}.cls-4{fill:#ffb050;}.cls-5{fill:#37215e;}.cls-6{fill:#ff4230;}</style></defs><g id="Layer_2" data-name="Layer 2"><g id="Layer_1-2" data-name="Layer 1"><path class="cls-1" d="M652.68,50V63.33a31.11,31.11,0,0,1-31.11,31.11H599.18v57.78h41a34.58,34.58,0,0,0,34.58-34.57V50Z"/><path class="cls-2" d="M599.18,84.59V76.46A26.45,26.45,0,0,1,625.63,50h27V4.37H537.73a31.32,31.32,0,0,0-31.31,31.32V50H564.6A34.58,34.58,0,0,1,599.18,84.59Z"/><path class="cls-3" d="M599.18,76.46v18h22.39a31.11,31.11,0,0,0,31.11-31.11V50h-27A26.45,26.45,0,0,0,599.18,76.46Z"/><path class="cls-4" d="M506.42,94.44V50H482v75.76c0,.19,0,.36,0,.55,0,.36,0,.72,0,1.09v69.77h75.59V94.44Z"/><path class="cls-5" d="M599.18,94.44H557.56V197.18h10.51a31.11,31.11,0,0,0,31.11-31.11V94.44Z"/><path class="cls-6" d="M557.56,94.44h41.62V84.59A34.58,34.58,0,0,0,564.6,50H506.42V94.44Z"/><path class="cls-5" d="M383.05,115.25a20.85,20.85,0,0,1-20.48,21.08l-18.31.77-.37,0c-9.88-.74-20.64-8.8-20.79-20.6V100.4A47,47,0,0,0,276.4,53.12L261.19,53a48.27,48.27,0,0,0-31.43,11.36v0l-1.12,1-.15.14c-.64.57-1.27,1.15-1.88,1.76A48.17,48.17,0,0,0,214,89.12h0c-.19.7-.36,1.41-.51,2.12,0,.1-.05.2-.07.3-.13.62-.24,1.24-.34,1.87,0,.19-.07.38-.1.58-.09.54-.16,1.09-.22,1.63,0,.28-.07.55-.1.83q-.07.73-.12,1.47c0,.33-.06.66-.08,1s0,1,0,1.42c0,.3,0,.59,0,.89v.41l0,7.54-30.13.43c-14.21-1.91-17.48-11.85-17.56-19.8l-.19-18.89L137,60l.47,102a20.85,20.85,0,0,1-20.31,21.08l-18.87,1.74L87.82,211.33l29.12-.56h.3a48.24,48.24,0,0,0,47.94-47.85v-.54l-.09-36.28,1.51-.08v-.13c.06,1.05,1,10.21,18.31,10.21h1l26.4-.29V136l.12-.26H240l.11-34.4a20.79,20.79,0,0,1,21-20.69l16.07.1a18.45,18.45,0,0,1,18.34,18.58l-.09,17.1a20.85,20.85,0,0,1-21,20.7L240,137v.34a27.78,27.78,0,0,0,27.6,27.44l6.67,0a48.15,48.15,0,0,0,26.12-7.48v.2a45.57,45.57,0,0,0,6.78-5.18l4.22-3.88,4.26,3.84a48,48,0,0,0,29,12.37c1.14.09,2.32.13,3.53.13h14.66a47.74,47.74,0,0,0,34.11-15A49.43,49.43,0,0,0,410.74,115V102.07L383,91.9Z"/><path class="cls-5" d="M48.9,35.34l.22-.21L65.05,18.52,48.44,2.59A8.32,8.32,0,0,0,37,2.61l-.21.22L20.84,19.43,37.45,35.37A8.32,8.32,0,0,0,48.9,35.34Z"/><path class="cls-5" d="M93.69,35l.22-.22L109.84,18.2,93.23,2.27a8.31,8.31,0,0,0-11.45,0l-.21.21L65.63,19.12,82.24,35.05A8.32,8.32,0,0,0,93.69,35Z"/><path class="cls-5" d="M380,70.5a8.31,8.31,0,0,0,8.11,8.08h.31l23-.47-.48-23A8.31,8.31,0,0,0,402.8,47h-.31l-23,.47Z"/><path class="cls-5" d="M356.18,47.14h.31l23-.47-.47-23a8.32,8.32,0,0,0-8.12-8.08h-.3l-23,.48.48,23A8.32,8.32,0,0,0,356.18,47.14Z"/><path class="cls-5" d="M111.91,117.8,111.52,53l-63.29.39A48.58,48.58,0,0,0,0,102.23L.11,120a47,47,0,0,0,47.31,46.74l16.26-.1A48.58,48.58,0,0,0,111.91,117.8Zm-48.4,21.14-17.12.1A18.48,18.48,0,0,1,27.8,120.67l-.11-18.61a20.83,20.83,0,0,1,20.71-21L84,80.88,84.22,118A20.87,20.87,0,0,1,63.51,138.94Z"/></g></g></svg>