<svg xmlns="http://www.w3.org/2000/svg" viewBox="0 0 804.91 192.8"><defs><style>.cls-1{fill:#bb93ff;}.cls-2{fill:#78e0df;}.cls-3{fill:#275e5d;}.cls-4{fill:#ffb050;}.cls-5{fill:#37215e;}.cls-6{fill:#ff4230;}</style></defs><g id="Layer_2" data-name="Layer 2"><g id="Layer_1-2" data-name="Layer 1"><path class="cls-1" d="M170.71,45.63V59A31.11,31.11,0,0,1,139.6,90.06H117.21v57.79h41a34.58,34.58,0,0,0,34.58-34.58V45.63Z"/><path class="cls-2" d="M117.21,80.21V72.09a26.46,26.46,0,0,1,26.46-26.46h27V0H55.77A31.32,31.32,0,0,0,24.45,31.32V45.63H82.63A34.58,34.58,0,0,1,117.21,80.21Z"/><path class="cls-3" d="M117.21,72.09v18H139.6A31.11,31.11,0,0,0,170.71,59V45.63h-27A26.46,26.46,0,0,0,117.21,72.09Z"/><path class="cls-4" d="M24.45,90.06V45.63H0V121.4c0,.18,0,.36,0,.54,0,.37,0,.73,0,1.1V192.8H75.59V90.06Z"/><path class="cls-5" d="M117.21,90.06H75.59V192.8H86.11a31.1,31.1,0,0,0,31.1-31.11V90.06Z"/><path class="cls-6" d="M75.59,90.06h41.62V80.21A34.58,34.58,0,0,0,82.63,45.63H24.45V90.06Z"/><path class="cls-5" d="M804.69,97.9a49.2,49.2,0,0,0-49.43-48.83l-15.41.1a47.61,47.61,0,0,0-47.32,47.9l.1,16.46a49.17,49.17,0,0,0,49.42,48.82l6.76,0a28.15,28.15,0,0,0,28-28.14h0l-34.89.15a21.12,21.12,0,0,1-21.23-21L720.56,96A18.7,18.7,0,0,1,739.15,77.2l16.28-.1a21.08,21.08,0,0,1,21.23,21l.12,36a28.13,28.13,0,0,0,28.13,28h0Z"/><path class="cls-5" d="M401.22,165h28l-.15-87.62a28.14,28.14,0,0,0-28.14-28h0Z"/><path class="cls-5" d="M574.36,99.54l-.6,65.41h-9.48a18.4,18.4,0,0,1-18.4-18.58l.45-47.11a20.87,20.87,0,0,0-6-15c-6.22-6.36-17-8.83-25.25-5.46C507.28,82,500.93,89.32,500.93,98v29.34L501,165H491.8a18.4,18.4,0,0,1-18.4-18.4V98.2a21.1,21.1,0,0,0-19.78-21l-24.51.1a28.13,28.13,0,0,1,14.33-24.52l1.22-.65a26.86,26.86,0,0,1,17.62-2q.78.16,1.56.36a47.61,47.61,0,0,1,20.94,11.22L489,65.61l4.32-3.88a48.13,48.13,0,0,1,67,2.5A50,50,0,0,1,574.36,99.54Z"/><path class="cls-5" d="M640.59,77.1h-32.4a28,28,0,0,1,28-28H676v28Z"/><path class="cls-5" d="M636.22,77.1V165h0a28,28,0,0,1-28-28V77.1Z"/><path class="cls-5" d="M308.36,55.7V165h27.85V79A23.28,23.28,0,0,0,312.93,55.7Z"/><path class="cls-5" d="M368.2,55.7H260.73V43.48a15.63,15.63,0,0,1,15.64-15.63H383.83v12.2A15.63,15.63,0,0,1,368.2,55.7Z"/></g></g></svg>