<svg width="84" height="84" viewBox="0 0 84 84" fill="none" xmlns="http://www.w3.org/2000/svg">
<circle opacity="0.3" cx="49" cy="35" r="35" fill="#F2CAAA"/>
<path d="M36.523 53.6044C36.3438 53.6044 36.1645 53.5358 36.028 53.3992L21.3679 38.7391C17.2003 34.5715 17.2003 27.7901 21.3679 23.6225C23.3859 21.6031 26.0704 20.4912 28.9251 20.4912C31.7799 20.4912 34.4651 21.6031 36.4838 23.6225L36.523 23.6617L36.5622 23.6225C38.5809 21.6031 41.2655 20.4912 44.1209 20.4912C46.9756 20.4912 49.6595 21.6031 51.6788 23.6225C55.8464 27.7901 55.8464 34.5715 51.6788 38.7391L37.018 53.3992C36.8815 53.5358 36.7023 53.6044 36.523 53.6044ZM28.9251 21.8916C26.4443 21.8916 24.1113 22.8579 22.3573 24.6126C18.7358 28.234 18.7358 34.1269 22.3573 37.749L36.5223 51.9141L50.6874 37.749C54.3088 34.1269 54.3088 28.234 50.6874 24.6126C48.9341 22.8579 46.6017 21.8916 44.1209 21.8916C41.6394 21.8916 39.307 22.8579 37.5523 24.6126L37.018 25.1468C36.7443 25.4206 36.3017 25.4206 36.028 25.1468L35.4937 24.6126C33.739 22.8579 31.4066 21.8916 28.9251 21.8916Z" fill="#1A1A1A"/>
<path d="M30.6266 83.5089C28.5701 83.5089 26.5346 82.7519 24.5587 82.0181C22.3803 81.2087 20.1313 80.3727 17.8921 80.5701L12.4375 81.0539V59.812L15.3937 59.5494C17.2493 59.3877 18.8016 60.1082 20.3028 60.8077C21.7208 61.4679 23.0623 62.0988 24.6035 61.9658L34.4511 60.1789C37.9696 59.5809 39.9063 61.6241 41.0806 63.4845L51.8567 58.4753C55.8961 56.6618 60.4292 58.4823 63.1516 63.0014C63.8595 64.1763 63.4653 65.7364 62.2742 66.48C60.8787 67.3503 59.4882 68.2214 58.113 69.084C46.1164 76.6 35.757 83.0908 31.3303 83.478C31.0957 83.499 30.8612 83.5089 30.6266 83.5089ZM18.5818 79.1396C20.8322 79.1396 22.9706 79.9343 25.046 80.7052C27.1956 81.5049 29.2262 82.2583 31.2071 82.0832C35.2983 81.7254 46.0191 75.0084 57.3686 67.8965C58.7452 67.0345 60.1358 66.1621 61.532 65.291C62.0782 64.9507 62.2665 64.247 61.9515 63.7233C59.6121 59.8414 55.7876 58.2421 52.4385 59.749L40.5162 65.291L40.1969 64.7337C39.1326 62.8795 37.6489 61.0534 34.6941 61.5583L24.7855 63.3529C22.8075 63.516 21.2327 62.7843 19.7119 62.0764C18.3171 61.4259 16.9958 60.8105 15.5184 60.9442L13.8386 61.0933V79.5233L17.7688 79.1746C18.0412 79.1508 18.3122 79.1396 18.5818 79.1396Z" fill="#1A1A1A"/>
<path d="M27.8632 73.1726C27.5362 73.1726 27.2435 72.943 27.1777 72.6097C27.1021 72.2302 27.3479 71.8618 27.7274 71.7855C31.6275 71.0062 36.0129 69.2221 41.1166 66.3387L40.1966 64.7345C40.004 64.3991 40.1202 63.9706 40.4549 63.7787C40.7903 63.5876 41.2188 63.7031 41.4107 64.0371L42.6802 66.2505C42.872 66.5858 42.7565 67.0137 42.4225 67.2055C36.9238 70.3711 32.2073 72.3184 28.0012 73.1586C27.955 73.1684 27.9087 73.1726 27.8632 73.1726Z" fill="#1A1A1A"/>
<path d="M11.3755 83.5091H2.9647C1.60562 83.5091 0.5 82.4035 0.5 81.0444V58.4364C0.5 57.078 1.60562 55.9717 2.9647 55.9717H11.3755C12.7346 55.9717 13.8402 57.0773 13.8402 58.4364V81.0444C13.8395 82.4035 12.7339 83.5091 11.3755 83.5091ZM2.9647 57.3728C2.37794 57.3728 1.9004 57.8503 1.9004 58.4371V81.0444C1.9004 81.6312 2.37794 82.1087 2.9647 82.1087H11.3755C11.9623 82.1087 12.4398 81.6312 12.4398 81.0444V58.4364C12.4398 57.8496 11.9623 57.3721 11.3755 57.3721H2.9647V57.3728Z" fill="#1A1A1A"/>
</svg>
