<?xml version="1.0" ?><!DOCTYPE svg  PUBLIC '-//W3C//DTD SVG 1.1//EN'  'http://www.w3.org/Graphics/SVG/1.1/DTD/svg11.dtd'><svg height="32px" style="fill-rule:evenodd;clip-rule:evenodd;stroke-linejoin:round;stroke-miterlimit:2;" version="1.1" width="32px" xml:space="preserve" xmlns="http://www.w3.org/2000/svg" xmlns:serif="http://www.serif.com/" xmlns:xlink="http://www.w3.org/1999/xlink"><path d="M16.353,21.984l-3.425,0.002l0.094,-0.076c0.324,-0.299 0.54,-0.699 0.54,-1.142c0,-0.885 -0.792,-1.639 -1.808,-1.639c-0.456,-0 -0.914,0.166 -1.226,0.414c-0.191,0.152 -1.598,1.392 -2.359,2.065c-0.107,0.095 -0.169,0.231 -0.169,0.374c-0,1.16 0,3.502 0,3.502c0,0.277 0.224,0.5 0.5,0.5l8.909,0c0.378,0 0.743,-0.143 1.02,-0.4l3.742,-3.407c0.324,-0.299 0.54,-0.7 0.54,-1.143c0,-0.884 -0.792,-1.639 -1.809,-1.639c-0.456,0 -0.913,0.166 -1.225,0.414c-0.228,0.182 -2.735,1.797 -3.324,2.175Zm-0.71,-11.984l3.309,-0l-0.118,0.09c-0.325,0.299 -0.541,0.699 -0.541,1.142c0,0.885 0.793,1.639 1.809,1.639c0.456,0 0.913,-0.166 1.226,-0.414c0.191,-0.152 1.743,-1.426 2.503,-2.098c0.108,-0.095 0.169,-0.231 0.169,-0.375c0,-1.378 0,-3.502 0,-3.502c0,-0.133 -0.053,-0.26 -0.147,-0.354c-0.094,-0.094 -0.222,-0.146 -0.355,-0.146l-9.055,0.032c-0.377,0.002 -0.739,0.145 -1.015,0.4l-3.743,3.409c-0.325,0.299 -0.541,0.7 -0.541,1.143c0,0.884 0.793,1.639 1.809,1.639c0.456,-0 0.913,-0.166 1.226,-0.414c0.229,-0.182 2.864,-1.819 3.464,-2.191Z" style="fill:#fbeeac;"/><path d="M9.5,25.984c-0.276,0 -0.5,-0.223 -0.5,-0.5c-0,0 -0,-2.342 -0,-3.502c-0,-0.143 0.061,-0.279 0.169,-0.374c0.761,-0.673 2.168,-1.913 2.359,-2.065c0.197,-0.157 0.452,-0.281 0.727,-0.351c-0.159,-0.041 -0.327,-0.063 -0.501,-0.063c-0.456,-0 -0.914,0.166 -1.226,0.414c-0.191,0.152 -1.598,1.392 -2.359,2.065c-0.107,0.095 -0.169,0.231 -0.169,0.374c-0,1.16 0,3.502 0,3.502c0,0.277 0.224,0.5 0.5,0.5l1,0Zm4.429,-3.998l-0.001,0l3.425,-0.002c0.589,-0.378 3.096,-1.993 3.324,-2.175c0.197,-0.156 0.451,-0.28 0.727,-0.35c-0.159,-0.041 -0.327,-0.064 -0.502,-0.064c-0.456,0 -0.913,0.166 -1.225,0.414c-0.228,0.182 -2.735,1.797 -3.324,2.175l-2.424,0.002Zm5.023,-11.986l-0.118,0.09c-0.325,0.299 -0.541,0.699 -0.541,1.142c0,0.885 0.793,1.639 1.809,1.639c0.168,0 0.337,-0.022 0.499,-0.063c-0.764,-0.2 -1.308,-0.843 -1.308,-1.576c0,-0.443 0.216,-0.843 0.541,-1.142l0.118,-0.09l-1,-0Zm-7.5,2.541c-0.764,-0.2 -1.308,-0.843 -1.308,-1.575c0,-0.443 0.216,-0.844 0.541,-1.143l3.743,-3.409c0.276,-0.255 0.638,-0.398 1.015,-0.4l8.114,-0.028c-0.019,-0.003 -0.039,-0.004 -0.059,-0.004l-9.055,0.032c-0.377,0.002 -0.739,0.145 -1.015,0.4l-3.743,3.409c-0.325,0.299 -0.541,0.7 -0.541,1.143c0,0.884 0.793,1.639 1.809,1.639c0.169,-0 0.337,-0.023 0.499,-0.064Z" style="fill:#e7dfb6;"/><path d="M5,27.5c0,0.133 0.053,0.261 0.147,0.354c0.095,0.094 0.222,0.147 0.355,0.146c0,-0 1.132,-0.005 2.005,-0.009c0.826,-0.004 1.493,-0.675 1.493,-1.5l-0,-5.007c-0,-0.828 -0.672,-1.5 -1.5,-1.5l-2,0c-0.276,0 -0.5,0.224 -0.5,0.5l0,7.016Zm22,-23.016c0,-0.133 -0.053,-0.26 -0.147,-0.354c-0.095,-0.094 -0.222,-0.146 -0.355,-0.146c-0,0 -1.132,0.006 -2.005,0.01c-0.826,0.004 -1.493,0.674 -1.493,1.5l0,5.006c0,0.828 0.672,1.5 1.5,1.5l2,0c0.276,0 0.5,-0.224 0.5,-0.5l-0,-7.016Z" style="fill:#28527a;"/><path d="M6.5,19.984l-1,0c-0.276,0 -0.5,0.224 -0.5,0.5l0,7.016c0,0.133 0.053,0.261 0.147,0.354c0.095,0.094 0.222,0.147 0.355,0.146l0.933,-0.004c-0.108,-0.014 -0.209,-0.064 -0.288,-0.142c-0.094,-0.093 -0.147,-0.221 -0.147,-0.354l0,-7.016c-0,-0.276 0.224,-0.5 0.5,-0.5Zm20,-7.984l-1,-0c-0.828,-0 -1.5,-0.672 -1.5,-1.5l0,-5.006c0,-0.826 0.667,-1.496 1.493,-1.5l1.072,-0.005c-0.022,-0.003 -0.045,-0.005 -0.067,-0.005c-0,0 -1.132,0.006 -2.005,0.01c-0.826,0.004 -1.493,0.674 -1.493,1.5l0,5.006c0,0.828 0.672,1.5 1.5,1.5l2,-0Z" style="fill:#507496;"/><path d="M16,11.5c-1.38,-0 -2.5,1.12 -2.5,2.5c-0,1.38 1.12,2.5 2.5,2.5c1.38,-0 2.5,-1.12 2.5,-2.5c-0,-1.38 -1.12,-2.5 -2.5,-2.5Z" style="fill:#f4d160;"/><path d="M16.5,16.45c-1.141,-0.232 -2,-1.242 -2,-2.45c0,-1.209 0.859,-2.218 2,-2.45c-0.162,-0.033 -0.329,-0.05 -0.5,-0.05c-1.38,-0 -2.5,1.12 -2.5,2.5c-0,1.38 1.12,2.5 2.5,2.5c0.171,-0 0.338,-0.017 0.5,-0.05Z" style="fill:#dcc26f;"/></svg>