<svg width="-2.14748e+09" height="-2.14748e+09" viewBox="0 0 -2.14748e+09 -2.14748e+09" fill="none" xmlns="http://www.w3.org/2000/svg">
<g id="united_kingdom">
<circle id="blue" cx="-1.07374e+09" cy="-1.07374e+09" r="1.07374e+09" transform="rotate(180 -1.07374e+09 -1.07374e+09)" fill="#2D91D1"/>
<path id="white" fill-rule="evenodd" clip-rule="evenodd" d="M-4.44044e+08 -2.03843e+08L-1.07375e+09 -8.3355e+08L-1.70346e+09 -2.03843e+08C-1.79561e+09 -2.70673e+08 -1.87672e+09 -3.51788e+08 -1.94355e+09 -4.43939e+08L-1.31385e+09 -1.07365e+09L-1.94355e+09 -1.70335e+09C-1.87672e+09 -1.7955e+09 -1.79561e+09 -1.87662e+09 -1.70346e+09 -1.94345e+09L-1.07375e+09 -1.31374e+09L-4.44044e+08 -1.94345e+09C-3.51893e+08 -1.87662e+09 -2.70778e+08 -1.7955e+09 -2.03948e+08 -1.70335e+09L-8.33655e+08 -1.07365e+09L-2.03948e+08 -4.43939e+08C-2.70778e+08 -3.51788e+08 -3.51893e+08 -2.70673e+08 -4.44044e+08 -2.03843e+08Z" fill="white"/>
<path id="red" fill-rule="evenodd" clip-rule="evenodd" d="M-4.14391e+08 -1.92123e+09L-1.14536e+09 -1.18112e+09H-9.54477e+08L-3.12581e+08 -1.83104e+09C-3.44563e+08 -1.86318e+09 -3.78569e+08 -1.89332e+09 -4.14391e+08 -1.92123e+09ZM-1.9224e+09 -1.73177e+09L-1.37102e+09 -1.16937e+09H-1.18468e+09L-1.83547e+09 -1.83066e+09C-1.8664e+09 -1.79952e+09 -1.89544e+09 -1.76649e+09 -1.9224e+09 -1.73177e+09ZM-2.26073e+08 -4.14627e+08L-7.04413e+08 -8.94808e+08H-8.92087e+08L-3.14027e+08 -3.14992e+08C-2.82717e+08 -3.46342e+08 -2.53334e+08 -3.79618e+08 -2.26073e+08 -4.14627e+08ZM-1.83431e+09 -3.1585e+08L-1.22293e+09 -9.32162e+08H-1.04994e+09L-1.74268e+09 -2.33832e+08C-1.77477e+09 -2.59422e+08 -1.80537e+09 -2.86812e+08 -1.83431e+09 -3.1585e+08Z" fill="#F83C5E"/>
<path id="white_2" fill-rule="evenodd" clip-rule="evenodd" d="M-8.35133e+08 -2.66069e+07V-8.35133e+08H-2.66069e+07C-9.19379e+06 -9.11872e+08 0 -9.91733e+08 0 -1.07374e+09C0 -1.15575e+09 -9.19379e+06 -1.23561e+09 -2.66069e+07 -1.31235e+09H-8.35133e+08V-2.12088e+09C-9.11872e+08 -2.13829e+09 -9.91733e+08 -2.14748e+09 -1.07374e+09 -2.14748e+09C-1.15575e+09 -2.14748e+09 -1.23561e+09 -2.13829e+09 -1.31235e+09 -2.12088e+09V-1.31235e+09H-2.12088e+09C-2.13829e+09 -1.23561e+09 -2.14748e+09 -1.15575e+09 -2.14748e+09 -1.07374e+09C-2.14748e+09 -9.91733e+08 -2.13829e+09 -9.11872e+08 -2.12088e+09 -8.35133e+08H-1.31235e+09V-2.66069e+07C-1.23561e+09 -9.19379e+06 -1.15575e+09 0 -1.07374e+09 0C-9.91733e+08 0 -9.11872e+08 -9.19379e+06 -8.35133e+08 -2.66069e+07Z" fill="white"/>
<path id="red_2" fill-rule="evenodd" clip-rule="evenodd" d="M-8.94785e+08 -1.4846e+07V-8.94785e+08H-1.4846e+07C-5.08216e+06 -9.52983e+08 0 -1.01277e+09 0 -1.07374e+09C0 -1.13471e+09 -5.08216e+06 -1.1945e+09 -1.4846e+07 -1.2527e+09H-8.94785e+08V-2.13264e+09C-9.52983e+08 -2.1424e+09 -1.01277e+09 -2.14748e+09 -1.07374e+09 -2.14748e+09C-1.13471e+09 -2.14748e+09 -1.1945e+09 -2.1424e+09 -1.2527e+09 -2.13264e+09V-1.2527e+09H-2.13264e+09C-2.1424e+09 -1.1945e+09 -2.14748e+09 -1.13471e+09 -2.14748e+09 -1.07374e+09C-2.14748e+09 -1.01277e+09 -2.1424e+09 -9.52983e+08 -2.13264e+09 -8.94785e+08H-1.2527e+09V-1.4846e+07C-1.1945e+09 -5.08216e+06 -1.13471e+09 0 -1.07374e+09 0C-1.01277e+09 0 -9.52983e+08 -5.08216e+06 -8.94785e+08 -1.4846e+07Z" fill="#F83C5E"/>
</g>
</svg>
